<?xml version="1.0" encoding="UTF-8"?>
<svg version="1.1" xmlns="http://www.w3.org/2000/svg" width="200" height="200">
<path d="M0 0 C4.78142248 3.99004217 9.29681209 8.15445821 13.68821716 12.56796265 C14.3230652 13.20195626 14.95791324 13.83594987 15.61199909 14.48915541 C17.72084337 16.59636357 19.82611339 18.70710547 21.93139648 20.81787109 C23.44943618 22.33619309 24.96769655 23.85429446 26.48616028 25.37219238 C30.5952946 29.48104041 34.70134361 33.59295909 38.8068378 37.70544386 C43.10250968 42.00737716 47.40102339 46.30646899 51.69923401 50.60586548 C59.8325143 58.74225086 67.96324261 66.88118149 76.09305292 75.02103388 C85.35103705 84.29020466 94.61186898 93.55652796 103.87293899 102.82261539 C122.9184589 121.87858108 141.96040695 140.93811266 161 160 C159.48601545 163.78496138 158.9855604 164.0072198 155 166 C102.2 113.2 49.4 60.4 -5 6 C-3.35 4.02 -1.7 2.04 0 0 Z " fill="#000000" transform="translate(22,17)"/>
</svg>
